ModelForces
version=1
nRows=8
nColumns=75
inDegrees=no

This file contains the forces exerted on a model during a simulation.

A force is a generalized force, meaning that it can be either a force (N) or a torque (Nm).

Units are S.I. units (second, meters, Newtons, ...)
Angles are in degrees.

endheader
time	semimem_r	semiten_r	bifemlh_r	bifemsh_r	sar_r	grac_r	rect_fem_r	vas_med_r	vas_int_r	vas_lat_r	med_gas_r	lat_gas_r	femur_lat_meniscii_r.femur_lat_r.force.X	femur_lat_meniscii_r.femur_lat_r.force.Y	femur_lat_meniscii_r.femur_lat_r.force.Z	femur_lat_meniscii_r.femur_lat_r.torque.X	femur_lat_meniscii_r.femur_lat_r.torque.Y	femur_lat_meniscii_r.femur_lat_r.torque.Z	femur_lat_meniscii_r.meniscus_lat_r.force.X	femur_lat_meniscii_r.meniscus_lat_r.force.Y	femur_lat_meniscii_r.meniscus_lat_r.force.Z	femur_lat_meniscii_r.meniscus_lat_r.torque.X	femur_lat_meniscii_r.meniscus_lat_r.torque.Y	femur_lat_meniscii_r.meniscus_lat_r.torque.Z	femur_med_meniscii_r.femur_med_r.force.X	femur_med_meniscii_r.femur_med_r.force.Y	femur_med_meniscii_r.femur_med_r.force.Z	femur_med_meniscii_r.femur_med_r.torque.X	femur_med_meniscii_r.femur_med_r.torque.Y	femur_med_meniscii_r.femur_med_r.torque.Z	femur_med_meniscii_r.meniscus_med_r.force.X	femur_med_meniscii_r.meniscus_med_r.force.Y	femur_med_meniscii_r.meniscus_med_r.force.Z	femur_med_meniscii_r.meniscus_med_r.torque.X	femur_med_meniscii_r.meniscus_med_r.torque.Y	femur_med_meniscii_r.meniscus_med_r.torque.Z	femur_med_tibia_r.tibia_upper_r.force.X	femur_med_tibia_r.tibia_upper_r.force.Y	femur_med_tibia_r.tibia_upper_r.force.Z	femur_med_tibia_r.tibia_upper_r.torque.X	femur_med_tibia_r.tibia_upper_r.torque.Y	femur_med_tibia_r.tibia_upper_r.torque.Z	femur_med_tibia_r.femur_med_r.force.X	femur_med_tibia_r.femur_med_r.force.Y	femur_med_tibia_r.femur_med_r.force.Z	femur_med_tibia_r.femur_med_r.torque.X	femur_med_tibia_r.femur_med_r.torque.Y	femur_med_tibia_r.femur_med_r.torque.Z	femur_lat_tibia_r.tibia_upper_r.force.X	femur_lat_tibia_r.tibia_upper_r.force.Y	femur_lat_tibia_r.tibia_upper_r.force.Z	femur_lat_tibia_r.tibia_upper_r.torque.X	femur_lat_tibia_r.tibia_upper_r.torque.Y	femur_lat_tibia_r.tibia_upper_r.torque.Z	femur_lat_tibia_r.femur_lat_r.force.X	femur_lat_tibia_r.femur_lat_r.force.Y	femur_lat_tibia_r.femur_lat_r.force.Z	femur_lat_tibia_r.femur_lat_r.torque.X	femur_lat_tibia_r.femur_lat_r.torque.Y	femur_lat_tibia_r.femur_lat_r.torque.Z	aACL_R	pACL_R	aPCL_R	pPCL_R	aMCL_R	mMCL_R	pMCL_R	aLCL_R	mLCL_R	pLCL_R	aPCL_L	pPCL_L	aMCL_L	aLCL_L
      0.00000000	    601.92412141	    160.09161307	    469.94668240	     36.02754664	      6.22831494	      8.58230537	     11.21598276	     32.38176469	     32.82510377	     40.14722941	     67.39492298	     31.74693446	     -0.28299364	      0.13243531	      0.00246511	     -0.00349976	     -0.00837665	      0.05534422	      0.28299364	     -0.13243531	     -0.00246511	      0.00419209	      0.00891056	     -0.00454827	     -3.64420958	      0.08239415	      0.29868801	      0.00646305	     -0.04628927	      0.09076941	      3.64420958	     -0.08239415	     -0.29868801	     -0.00624440	     -0.04962961	     -0.06164219	      0.00000000	      0.00000000	      0.00000000	      0.00000000	      0.00000000	      0.00000000	      0.00000000	      0.00000000	      0.00000000	      0.00000000	      0.00000000	      0.00000000	      0.00000000	      0.00000000	      0.00000000	      0.00000000	      0.00000000	      0.00000000	      0.00000000	      0.00000000	      0.00000000	      0.00000000	      0.00000000	      0.00000000	     17.58855542	     41.35427838	      0.00000000	      0.00000000	      0.00000000	      4.34794595	     47.41152007	      1.86146449	      0.00000000	      2.98101398	      0.00000000	      0.00000000	      0.00000001	      0.00000000
      0.00100000	    590.47507984	    161.42549665	    464.97645231	     38.10989451	      9.27202442	     10.36001296	      9.39086754	     24.88434535	     25.43621471	     31.93494142	     62.93130955	     29.69458806	     -7.22888719	      0.16847141	      1.42217110	     -0.00066460	     -0.79133316	      0.08608134	      7.22888719	     -0.16847141	     -1.42217110	      0.00052655	      0.28154056	     -0.02639266	    -25.20520929	      1.15031665	      5.60384521	      0.09752066	     -1.82669291	      0.77972845	     25.20520929	     -1.15031665	     -5.60384521	     -0.09552975	     -0.19915220	     -0.35492290	      0.00000000	      0.00000000	      0.00000000	      0.00000000	      0.00000000	      0.00000000	      0.00000000	      0.00000000	      0.00000000	      0.00000000	      0.00000000	      0.00000000	      0.00000000	      0.00000000	      0.00000000	      0.00000000	      0.00000000	      0.00000000	      0.00000000	      0.00000000	      0.00000000	      0.00000000	      0.00000000	      0.00000000	    -69.39698774	    -51.83168885	      0.00000000	      0.00000000	      0.00000000	   -151.39260316	   -109.83145628	   -187.04230613	      0.00000000	   -189.68752043	      0.00000000	      0.00000000	      0.00000001	      0.00000000
      0.00259561	    561.99669665	    164.86684104	    454.98301311	     48.55439005	     18.21770844	     16.70179363	      4.41322369	      7.62202172	      7.85633772	     11.28868228	     49.29658865	     23.55195472	   -119.58186965	     -1.74594954	     46.44345135	      0.23957096	    -22.68962071	     -0.31887836	    119.58186965	      1.74594954	    -46.44345135	     -0.28094841	      5.43511817	     -0.43630848	   -208.46323677	     13.90551966	     81.20572060	      1.26202019	    -29.88370405	      8.17936930	    208.46323677	    -13.90551966	    -81.20572060	     -1.24910744	     -0.28868779	     -2.97955556	     41.55718324	     -2.40210279	    -14.86130144	     -0.23157193	      0.27700741	     -0.68983826	    -41.55718324	      2.40210279	     14.86130144	      0.23321752	     -5.78167042	      1.58418473	      0.00000000	      0.00000000	      0.00000000	      0.00000000	      0.00000000	      0.00000000	      0.00000000	      0.00000000	      0.00000000	      0.00000000	      0.00000000	      0.00000000	   -112.38182582	   -107.19316144	      0.00000000	      0.00000000	      0.00000000	   -211.73783944	   -175.61395456	   -261.02558449	      0.00000000	   -266.95918651	      0.00000000	      0.00000000	      0.00000001	      0.00000000
      0.00325008	    556.33710353	    167.97597071	    454.61584801	     57.44639255	     22.51177306	     20.51051535	      3.11823268	      4.06205065	      4.03076770	      6.39202745	     44.97663906	     21.65799469	   -185.44728261	      6.74796582	     58.48217282	      0.06732797	    -29.42581230	      3.51700174	    185.44728261	     -6.74796582	    -58.48217282	     -0.07383100	      7.86991544	     -1.05039561	   -286.64674033	     28.57726101	     92.44890688	      1.71773235	    -32.91845366	     15.26174556	    286.64674033	    -28.57726101	    -92.44890688	     -1.63953924	     -1.18936900	     -4.47609126	    414.66078513	    -40.29851384	   -131.80041844	     -2.25790465	      1.11476566	     -7.40901752	   -414.66078513	     40.29851384	    131.80041844	      2.36719355	    -49.71117349	     22.61140351	      0.01734249	     -0.00043478	     -0.00639645	     -0.00002632	      0.00070601	     -0.00011935	     -0.01734249	      0.00043478	      0.00639645	      0.00002411	     -0.00307820	      0.00027460	    -97.35906494	    -94.12456719	      0.00000000	      0.00000000	      0.00000000	   -191.72801383	   -158.19072074	   -237.86432305	      0.00000000	   -244.00867749	      0.00000000	      0.00000000	      0.00000001	      0.00000000
      0.00406506	    561.36398629	    176.22470983	    461.57826575	     77.78189970	     29.83951817	     27.48157726	      2.66972379	      3.20216063	      2.93442421	      4.64368960	     42.75257550	     20.76197401	   -195.27182151	     29.69659063	     18.96273920	     -0.70355625	    -12.95607431	     13.26443472	    195.27182151	    -29.69659063	    -18.96273920	      0.83624102	      6.62623294	     -1.98524654	   -271.50851993	     31.45174668	     37.43689331	      1.12515523	     -9.92589573	     16.31688144	    271.50851993	    -31.45174668	    -37.43689331	     -0.99583249	     -3.12706681	     -4.41283016	   1210.39636429	   -117.48340147	    -59.67217846	     -2.23353384	    -12.69255506	    -20.69251190	  -1210.39636429	    117.48340147	     59.67217846	      2.76835978	     -4.31804174	     65.03166982	     44.00001171	     -4.22842236	     -8.78023079	      0.05773429	      1.51241613	     -0.43865391	    -44.00001171	      4.22842236	      8.78023079	     -0.04276725	     -4.66981626	      2.03421231	    -48.69328302	    -44.36033347	      0.00000000	      0.00000000	      0.00000000	   -114.39810174	    -83.98425732	   -143.12888604	      0.00000000	   -148.55463736	      0.00000000	      0.00000000	      0.00000001	      0.00000000
      0.00458264	    572.45000238	    184.14859779	    471.35471875	     98.94045766	     35.89489696	     33.67664270	      3.03981198	      4.42260865	      4.05541386	      5.78633317	     43.66844386	     21.28197351	   -167.99399113	     40.04488344	     10.24975818	     -1.02645007	     -8.57707220	     17.53389264	    167.99399113	    -40.04488344	    -10.24975818	      1.21486784	      5.45838727	     -2.26129537	   -221.38736549	     26.62585175	     29.61654332	      0.88740258	     -7.72641078	     13.72235521	    221.38736549	    -26.62585175	    -29.61654332	     -0.77629504	     -2.56929132	     -3.63577484	   1426.95891983	   -121.26272885	     43.58843729	     -0.89616566	    -20.09876855	    -23.44785519	  -1426.95891983	    121.26272885	    -43.58843729	      1.51310830	     43.77756042	     69.12517813	     74.43184885	     -9.01521358	    -17.95042639	      0.12960484	      2.69405544	     -0.81638369	    -74.43184885	      9.01521358	     17.95042639	     -0.09690909	     -9.22486257	      4.23191403	    -19.17628156	    -14.83240823	      0.00000000	      0.00000000	      0.00000000	    -56.58259872	    -27.62267897	    -73.82318233	      0.00000000	    -78.87164463	      0.00000000	      0.00000000	      0.00000001	      0.00000000
      0.00510022	    587.20622666	    193.03532798	    483.76999400	    126.05218310	     42.42700518	     40.91247118	      3.72688526	      6.52778334	      6.06708997	      8.05069642	     46.09551877	     22.51736244	   -143.27302736	     46.11397679	     10.30324706	     -1.19668054	     -7.97238405	     19.99560154	    143.27302736	    -46.11397679	    -10.30324706	      1.41417351	      4.71110462	     -2.37480306	   -183.03916297	     23.59472863	     31.38668231	      0.81264800	     -9.31151046	     11.99442275	    183.03916297	    -23.59472863	    -31.38668231	     -0.71692854	     -1.85223468	     -3.04394038	   1463.88957546	   -115.76355815	     80.63098122	     -0.30170898	    -22.28656319	    -23.54647348	  -1463.88957546	    115.76355815	    -80.63098122	      0.91116529	     60.34533197	     67.12329352	     84.73424252	    -12.62675650	    -25.83864793	      0.17806172	      3.28681085	     -1.02371917	    -84.73424252	     12.62675650	     25.83864793	     -0.13222591	    -12.79703857	      5.82146219	      0.43370460	      4.50814429	      0.00000000	      0.00000000	      0.00000000	    -16.64785212	     11.38069230	    -27.88553262	      0.00000000	    -32.86533362	      0.00000000	      0.00000000	      0.00000001	      0.00000000
      0.00590733	    611.45835143	    206.35234219	    503.80064596	    173.17712595	     51.65080288	     52.53309627	      5.01463404	     10.61419711	      9.99725893	     12.59193758	     51.68829715	     25.29976821	   -125.57258456	     52.78808254	     12.46781248	     -1.37149297	     -8.43619053	     22.73372913	    125.57258456	    -52.78808254	    -12.46781248	      1.61921325	      4.25469963	     -2.53453521	   -160.30064696	     21.49053003	     33.51396915	      0.74675245	    -10.70696578	     10.80858539	    160.30064696	    -21.49053003	    -33.51396915	     -0.66156925	     -1.38786262	     -2.64544621	   1412.71325212	   -103.89524243	     85.15082411	     -0.03960691	    -21.97165836	    -22.19307868	  -1412.71325212	    103.89524243	    -85.15082411	      0.58758522	     61.47923103	     61.30617771	     82.19698496	    -15.72309650	    -29.25296151	      0.24069544	      3.35479845	     -1.12924723	    -82.19698496	     15.72309650	     29.25296151	     -0.18098035	    -14.19026346	      7.12096408	     12.40112825	     16.07065657	      0.00000000	      0.00000000	      0.00000000	      6.29544652	     33.46157767	     -5.48593973	      0.00000000	    -10.94888787	      0.00000000	      0.00000000	      0.00000001	      0.00000000
